<svg width="281" height="91" viewBox="0 0 281 91" fill="none" xmlns="http://www.w3.org/2000/svg">
<path d="M11.16 85V17.16C11.16 13.32 10.6053 10.248 9.496 7.94399C8.472 5.55466 6.04 4.35999 2.2 4.35999H0.92V0.519997H35.736C53.3147 0.519997 66.4987 4.232 75.288 11.656C84.1627 19.08 88.6 29.2773 88.6 42.248C88.6 50.696 86.68 58.12 82.84 64.52C79.0853 70.92 73.5387 75.9547 66.2 79.624C58.8613 83.208 49.816 85 39.064 85H11.16ZM38.68 79.88C44.6533 79.88 49.944 78.3867 54.552 75.4C59.16 72.4133 62.7867 68.1467 65.432 62.6C68.0773 57.0533 69.4 50.44 69.4 42.76C69.4 35.2507 68.0773 28.7227 65.432 23.176C62.872 17.6293 59.2453 13.32 54.552 10.248C49.944 7.176 44.568 5.64 38.424 5.64C36.5467 5.64 34.9253 5.68267 33.56 5.768C32.1947 5.85333 30.2747 6.10933 27.8 6.536V78.984C29.6773 79.3253 31.128 79.5813 32.152 79.752C33.2613 79.8373 34.2853 79.88 35.224 79.88C36.1627 79.88 37.3147 79.88 38.68 79.88ZM98.26 85V17.16C98.26 13.32 97.7053 10.248 96.596 7.94399C95.572 5.55466 93.14 4.35999 89.3 4.35999H88.02V0.519997H123.22C125.524 0.519997 128.169 0.690664 131.156 1.032C134.143 1.28799 137.172 1.88533 140.244 2.824C143.401 3.76266 146.303 5.17066 148.948 7.048C151.593 8.92533 153.727 11.4427 155.348 14.6C156.969 17.672 157.78 21.5547 157.78 26.248C157.78 30.6853 156.969 34.3973 155.348 37.384C153.727 40.2853 151.636 42.632 149.076 44.424C146.601 46.216 143.956 47.5813 141.14 48.52C138.324 49.4587 135.636 50.0987 133.076 50.44C130.601 50.696 128.596 50.824 127.06 50.824H114.9V85H98.26ZM114.9 45.704H122.58C124.799 45.704 126.932 45.4053 128.98 44.808C131.028 44.2107 132.863 43.144 134.484 41.608C136.105 40.072 137.385 38.024 138.324 35.464C139.348 32.8187 139.86 29.5333 139.86 25.608C139.86 21.6827 139.348 18.44 138.324 15.88C137.385 13.2347 136.105 11.1867 134.484 9.736C132.948 8.2 131.199 7.13333 129.236 6.536C127.273 5.93866 125.268 5.64 123.22 5.64C122.281 5.64 121.129 5.68267 119.764 5.768C118.484 5.85333 116.863 6.10933 114.9 6.536V45.704ZM261.991 90.76C255.847 90.76 250.855 89.7787 247.015 87.816C243.175 85.9387 240.359 82.9947 238.567 78.984C236.86 74.888 236.007 69.64 236.007 63.24V17.928L207.975 85H203.751L169.447 15.368V85H163.047V0.519997H178.663L209.639 63.368L235.879 0.519997H252.647V63.24C252.647 71.0053 253.287 76.8507 254.567 80.776C255.932 84.616 258.407 86.8773 261.991 87.56V90.76Z" fill="white"/>
<path d="M272.511 86.792C270.036 86.792 268.116 86.0667 266.751 84.616C265.386 83.1653 264.703 81.288 264.703 78.984C264.703 76.68 265.386 74.8027 266.751 73.352C268.116 71.9013 270.036 71.176 272.511 71.176C274.986 71.176 276.906 71.9013 278.271 73.352C279.636 74.8027 280.319 76.68 280.319 78.984C280.319 81.288 279.636 83.1653 278.271 84.616C276.906 86.0667 274.986 86.792 272.511 86.792Z" fill="#FCC764"/>
</svg>
