<?xml version="1.0" encoding="UTF-8" standalone="no"?><!DOCTYPE svg PUBLIC "-//W3C//DTD SVG 1.1//EN" "http://www.w3.org/Graphics/SVG/1.1/DTD/svg11.dtd"><svg width="100%" height="100%" viewBox="0 0 1604 410" version="1.1" xmlns="http://www.w3.org/2000/svg" xmlns:xlink="http://www.w3.org/1999/xlink" xml:space="preserve" xmlns:serif="http://www.serif.com/" style="fill-rule:evenodd;clip-rule:evenodd;stroke-linejoin:round;stroke-miterlimit:2;"><g transform="matrix(3.34766,0,0,3.34766,-553.435,-646.24)"><g transform="matrix(59.7431,0,0,59.7431,164.294,235.878)"><path d="M0.295,-0.467c0.018,0 0.034,0.002 0.048,0.005c0.014,0.003 0.029,0.007 0.045,0.012l0,0.081c-0.013,-0.014 -0.027,-0.026 -0.042,-0.035c-0.015,-0.008 -0.033,-0.013 -0.055,-0.013c-0.014,0 -0.029,0.003 -0.044,0.008c-0.016,0.005 -0.031,0.015 -0.046,0.029c-0.015,0.013 -0.027,0.033 -0.036,0.057c-0.009,0.026 -0.013,0.058 -0.013,0.098c0,0.039 0.006,0.071 0.017,0.095c0.011,0.024 0.025,0.042 0.042,0.054c0.016,0.011 0.032,0.017 0.047,0.017c0.019,0 0.038,-0.006 0.055,-0.018c0.018,-0.012 0.033,-0.031 0.044,-0.058c0.012,-0.027 0.018,-0.064 0.018,-0.109l0.032,0.105c-0.009,0.023 -0.018,0.04 -0.025,0.053c-0.007,0.012 -0.013,0.021 -0.018,0.026c-0.007,0.01 -0.017,0.02 -0.029,0.031c-0.013,0.01 -0.029,0.019 -0.047,0.027c-0.018,0.007 -0.038,0.011 -0.06,0.011c-0.039,-0 -0.072,-0.008 -0.1,-0.023c-0.029,-0.015 -0.051,-0.039 -0.066,-0.071c-0.016,-0.033 -0.024,-0.074 -0.024,-0.125c0,-0.048 0.011,-0.091 0.032,-0.13c0.021,-0.039 0.051,-0.069 0.09,-0.092c0.039,-0.023 0.084,-0.035 0.135,-0.035Zm0.185,0.322c0,0.017 0.001,0.03 0.004,0.041c0.003,0.011 0.009,0.018 0.017,0.023c0.009,0.005 0.023,0.007 0.04,0.007c0.001,0.008 0,0.017 -0.001,0.026c-0.001,0.009 -0.003,0.018 -0.006,0.026c-0.019,0.001 -0.04,0.004 -0.063,0.009c-0.023,0.005 -0.044,0.013 -0.061,0.022c-0.008,-0.003 -0.015,-0.009 -0.02,-0.015c-0.005,-0.007 -0.007,-0.022 -0.007,-0.043c0,-0.013 0.001,-0.025 0.004,-0.036c0.003,-0.011 0.006,-0.028 0.011,-0.051l0.082,-0.009Zm-0,-0.429l-0,0.446l-0.105,0l-0,-0.446l0.105,0Zm-0.024,-0.143c0.007,0.003 0.012,0.007 0.017,0.014c0.005,0.007 0.007,0.017 0.007,0.03l-0,0.135l-0.105,0l-0,-0.031c-0,-0.016 -0.002,-0.029 -0.005,-0.039c-0.003,-0.011 -0.01,-0.019 -0.021,-0.024c-0.011,-0.005 -0.027,-0.008 -0.049,-0.008c-0,-0.008 0.001,-0.016 0.002,-0.023c0.001,-0.007 0.004,-0.014 0.007,-0.02c0.014,0 0.031,-0.002 0.05,-0.005c0.02,-0.003 0.039,-0.008 0.057,-0.013c0.019,-0.005 0.032,-0.011 0.04,-0.016Z" style="fill-rule:nonzero;"/></g><g transform="matrix(59.7431,0,0,59.7431,198.766,235.878)"><path d="M0.349,0.009c-0.008,-0.003 -0.014,-0.01 -0.019,-0.019c-0.005,-0.009 -0.007,-0.022 -0.007,-0.04c0,-0.007 0.001,-0.014 0.002,-0.023c0.001,-0.009 0.002,-0.018 0.004,-0.026l0.003,0c-0.003,0.013 -0.008,0.025 -0.016,0.038c-0.007,0.013 -0.017,0.024 -0.028,0.034c-0.012,0.01 -0.027,0.018 -0.045,0.025c-0.018,0.006 -0.039,0.009 -0.064,0.009c-0.043,-0 -0.076,-0.01 -0.098,-0.028c-0.023,-0.02 -0.035,-0.046 -0.035,-0.08c0,-0.026 0.006,-0.048 0.019,-0.067c0.012,-0.018 0.028,-0.033 0.048,-0.045c0.019,-0.013 0.041,-0.023 0.064,-0.03c0.023,-0.007 0.047,-0.013 0.07,-0.017c0.023,-0.005 0.043,-0.008 0.062,-0.011c0,-0.025 -0.001,-0.045 -0.002,-0.06c-0.001,-0.015 -0.003,-0.026 -0.006,-0.035c-0.003,-0.01 -0.007,-0.017 -0.013,-0.024c-0.008,-0.009 -0.017,-0.016 -0.027,-0.021c-0.01,-0.005 -0.021,-0.007 -0.033,-0.007c-0.021,0 -0.038,0.007 -0.05,0.02c-0.012,0.013 -0.021,0.028 -0.026,0.046c-0.005,0.017 -0.009,0.034 -0.01,0.049c-0.009,0 -0.02,-0.001 -0.032,-0.002c-0.012,-0.001 -0.022,-0.003 -0.029,-0.006c0.001,-0.017 0.002,-0.036 0.002,-0.057c-0.001,-0.021 -0.003,-0.039 -0.007,-0.055c0.028,-0.014 0.058,-0.025 0.09,-0.032c0.032,-0.008 0.062,-0.012 0.089,-0.012c0.029,0 0.053,0.004 0.072,0.011c0.019,0.007 0.034,0.017 0.045,0.029c0.017,0.016 0.028,0.037 0.034,0.064c0.006,0.026 0.009,0.062 0.009,0.107l0,0.103c0,0.019 0.002,0.035 0.005,0.046c0.003,0.011 0.008,0.02 0.017,0.025c0.009,0.005 0.022,0.007 0.039,0.008c0.001,0.008 0.001,0.017 -0,0.026c-0.001,0.009 -0.004,0.018 -0.007,0.026c-0.019,0.001 -0.039,0.004 -0.061,0.009c-0.022,0.005 -0.042,0.013 -0.059,0.022Zm-0.136,-0.065c0.015,0 0.029,-0.005 0.044,-0.014c0.015,-0.01 0.027,-0.025 0.037,-0.044c0.01,-0.02 0.015,-0.046 0.015,-0.078l0,-0.035c-0.017,0.003 -0.035,0.006 -0.053,0.01c-0.018,0.004 -0.034,0.01 -0.049,0.017c-0.015,0.007 -0.027,0.017 -0.036,0.029c-0.009,0.012 -0.014,0.028 -0.014,0.048c0,0.023 0.006,0.04 0.017,0.051c0.011,0.011 0.024,0.016 0.039,0.016Z" style="fill-rule:nonzero;"/></g><g transform="matrix(59.7431,0,0,59.7431,229.354,235.878)"><path d="M0.227,0.004c-0.046,-0 -0.082,-0.013 -0.108,-0.039c-0.025,-0.026 -0.038,-0.073 -0.038,-0.14l-0,-0.141c-0,-0.025 -0.003,-0.044 -0.01,-0.055c-0.007,-0.012 -0.025,-0.018 -0.055,-0.019c-0,-0.008 0,-0.015 0.001,-0.022c0.001,-0.007 0.004,-0.014 0.007,-0.021c0.025,-0.001 0.05,-0.005 0.076,-0.012c0.027,-0.007 0.048,-0.014 0.063,-0.022c0.007,0.003 0.012,0.007 0.017,0.014c0.005,0.007 0.007,0.018 0.007,0.033l-0,0.222c-0,0.045 0.006,0.078 0.017,0.101c0.011,0.023 0.031,0.034 0.06,0.034c0.031,0 0.058,-0.014 0.079,-0.041c0.021,-0.027 0.032,-0.07 0.032,-0.127l-0,-0.09c-0,-0.025 -0.004,-0.044 -0.013,-0.055c-0.008,-0.012 -0.028,-0.018 -0.061,-0.019c-0,-0.008 0,-0.015 0.001,-0.022c0.001,-0.007 0.003,-0.014 0.007,-0.021c0.029,-0.001 0.057,-0.005 0.084,-0.01c0.027,-0.006 0.049,-0.012 0.064,-0.019c0.007,0.003 0.012,0.007 0.017,0.014c0.005,0.007 0.007,0.018 0.007,0.033l-0,0.287l-0.092,0.037c-0.003,0.009 -0.008,0.018 -0.014,0.027c-0.006,0.009 -0.013,0.017 -0.021,0.024c-0.017,0.016 -0.035,0.028 -0.055,0.037c-0.02,0.008 -0.044,0.012 -0.072,0.012Zm0.184,0.005c-0.008,-0.003 -0.015,-0.009 -0.02,-0.015c-0.005,-0.007 -0.007,-0.022 -0.007,-0.043c-0,-0.008 0.001,-0.019 0.002,-0.032c0.001,-0.014 0.004,-0.032 0.008,-0.053l0.087,-0.011c-0,0.017 0.001,0.03 0.004,0.041c0.003,0.011 0.008,0.018 0.017,0.023c0.009,0.005 0.022,0.007 0.04,0.007c-0,0.008 -0,0.017 -0.001,0.026c-0.001,0.009 -0.003,0.018 -0.006,0.026c-0.019,0.001 -0.04,0.004 -0.063,0.009c-0.023,0.005 -0.044,0.013 -0.061,0.022Z" style="fill-rule:nonzero;"/></g><g transform="matrix(59.7431,0,0,59.7431,263.886,235.878)"><path d="M0.11,-0.212l0,-0.104c0,-0.017 -0.002,-0.031 -0.005,-0.041c-0.003,-0.011 -0.009,-0.019 -0.02,-0.024c-0.011,-0.005 -0.027,-0.008 -0.049,-0.009c0,-0.008 0.001,-0.016 0.002,-0.023c0.001,-0.007 0.004,-0.014 0.007,-0.02c0.025,-0.001 0.052,-0.005 0.081,-0.012c0.029,-0.007 0.051,-0.014 0.066,-0.022c0.007,0.003 0.012,0.007 0.017,0.014c0.005,0.007 0.007,0.018 0.007,0.033l-0.106,0.208Zm0.408,0.08c0,0.034 0.004,0.057 0.013,0.069c0.009,0.012 0.024,0.018 0.044,0.018c0.002,0.007 0.003,0.014 0.004,0.021c0.001,0.007 0.001,0.016 0.001,0.027c-0.015,-0.001 -0.032,-0.002 -0.052,-0.003c-0.02,0 -0.04,-0 -0.061,-0c-0.014,-0 -0.029,0 -0.045,0c-0.015,0.001 -0.03,0.001 -0.044,0.001c-0.014,0.001 -0.026,0.001 -0.037,0.002c-0,-0.01 0,-0.019 0.001,-0.027c0.001,-0.008 0.002,-0.015 0.005,-0.021c0.022,0 0.038,-0.006 0.049,-0.019c0.011,-0.013 0.016,-0.036 0.016,-0.07l-0,-0.139c-0,-0.046 -0.008,-0.077 -0.024,-0.094c-0.016,-0.017 -0.037,-0.025 -0.064,-0.025c-0.017,0 -0.033,0.006 -0.05,0.017c-0.017,0.011 -0.031,0.029 -0.042,0.053c-0.011,0.024 -0.016,0.056 -0.016,0.095l-0,0.095c-0,0.033 0.005,0.056 0.014,0.069c0.01,0.012 0.027,0.018 0.051,0.018c0.003,0.007 0.004,0.014 0.005,0.021c0.001,0.008 0.001,0.017 0.001,0.027c-0.009,-0.001 -0.021,-0.001 -0.035,-0.002c-0.014,0 -0.029,-0 -0.044,-0.001c-0.015,0 -0.03,-0 -0.045,-0c-0.014,-0 -0.029,0 -0.045,0c-0.015,0.001 -0.03,0.001 -0.045,0.001c-0.015,0.001 -0.027,0.001 -0.037,0.002c-0,-0.01 0,-0.019 0.001,-0.028c0.001,-0.008 0.003,-0.015 0.005,-0.02c0.026,0 0.044,-0.006 0.053,-0.019c0.01,-0.012 0.015,-0.035 0.015,-0.068l-0,-0.184l0.106,-0.104c-0,0.008 -0.001,0.017 -0.002,0.027c-0.001,0.01 -0.003,0.021 -0.006,0.032c0.003,-0.005 0.005,-0.01 0.008,-0.015c0.003,-0.005 0.006,-0.011 0.011,-0.017c0.012,-0.015 0.03,-0.031 0.055,-0.046c0.025,-0.015 0.054,-0.023 0.088,-0.023c0.026,0 0.05,0.005 0.073,0.016c0.023,0.01 0.041,0.027 0.054,0.05c0.014,0.024 0.021,0.056 0.021,0.097l-0,0.167Z" style="fill-rule:nonzero;"/></g><g transform="matrix(59.7431,0,0,59.7431,300.688,235.878)"><path d="M0.213,0.009c-0.041,-0 -0.072,-0.011 -0.093,-0.032c-0.02,-0.021 -0.03,-0.056 -0.03,-0.105l0,-0.258c-0.01,-0.003 -0.02,-0.006 -0.031,-0.009c-0.011,-0.002 -0.025,-0.003 -0.041,-0.004c0,-0.009 0.001,-0.018 0.002,-0.025c0.001,-0.007 0.004,-0.015 0.007,-0.024l0.063,0l0,-0.129c0.016,-0.003 0.032,-0.009 0.048,-0.017c0.015,-0.008 0.028,-0.017 0.039,-0.026c0.007,0.003 0.012,0.007 0.015,0.013c0.003,0.006 0.004,0.02 0.004,0.042l0,0.117l0.128,0c0,0.008 -0.001,0.016 -0.002,0.025c-0.001,0.009 -0.004,0.017 -0.007,0.025c-0.024,0 -0.046,0.001 -0.066,0.004c-0.019,0.003 -0.037,0.006 -0.053,0.009l0,0.237c0,0.023 0.002,0.042 0.007,0.056c0.004,0.015 0.01,0.025 0.018,0.032c0.009,0.007 0.019,0.01 0.031,0.01c0.013,-0 0.025,-0.002 0.035,-0.006c0.011,-0.003 0.021,-0.009 0.03,-0.016c0.009,0.011 0.014,0.023 0.015,0.038c-0.011,0.012 -0.028,0.022 -0.051,0.03c-0.023,0.009 -0.045,0.013 -0.068,0.013Z" style="fill-rule:nonzero;"/></g><g transform="matrix(59.7431,0,0,59.7431,322.076,235.878)"><path d="M0.034,0.003c0,-0.008 0,-0.016 0.001,-0.025c0.001,-0.009 0.002,-0.016 0.004,-0.023c0.027,-0.001 0.045,-0.007 0.054,-0.019c0.01,-0.012 0.015,-0.035 0.015,-0.068l0,-0.439c0,-0.015 -0.002,-0.028 -0.005,-0.038c-0.003,-0.01 -0.01,-0.018 -0.021,-0.023c-0.011,-0.005 -0.027,-0.008 -0.049,-0.008c0,-0.008 0.001,-0.016 0.002,-0.023c0.001,-0.007 0.004,-0.014 0.007,-0.02c0.014,0 0.031,-0.002 0.051,-0.005c0.02,-0.003 0.039,-0.008 0.056,-0.013c0.018,-0.005 0.031,-0.011 0.04,-0.016c0.007,0.003 0.012,0.007 0.017,0.014c0.005,0.007 0.007,0.017 0.007,0.03l-0,0.541c-0,0.033 0.004,0.056 0.013,0.068c0.009,0.012 0.025,0.018 0.047,0.019c0.002,0.007 0.004,0.015 0.005,0.024c0.001,0.009 0.001,0.017 0.001,0.024c-0.011,-0.001 -0.024,-0.001 -0.037,-0.002c-0.013,0 -0.027,-0 -0.042,-0.001c-0.015,0 -0.029,-0 -0.043,-0c-0.014,-0 -0.029,0 -0.044,0c-0.015,0.001 -0.03,0.001 -0.043,0.001c-0.013,0.001 -0.025,0.001 -0.036,0.002Z" style="fill-rule:nonzero;"/></g><g transform="matrix(59.7431,0,0,59.7431,340.656,235.878)"><path d="M0.259,0.009c-0.05,-0 -0.091,-0.011 -0.124,-0.032c-0.032,-0.021 -0.056,-0.05 -0.073,-0.086c-0.016,-0.036 -0.024,-0.076 -0.024,-0.119c-0,-0.044 0.009,-0.084 0.026,-0.12c0.017,-0.036 0.042,-0.065 0.075,-0.086c0.032,-0.022 0.07,-0.033 0.114,-0.033c0.045,0 0.081,0.009 0.108,0.028c0.027,0.019 0.048,0.044 0.062,0.075c0.013,0.031 0.021,0.067 0.023,0.106c-0.003,0.015 -0.008,0.028 -0.017,0.038l-0.054,0c-0.024,0 -0.049,0 -0.078,0.001c-0.028,-0 -0.057,0.001 -0.086,0.002c-0.03,0.001 -0.058,0.002 -0.084,0.003l0,-0.055l0.206,0c0,-0.044 -0.007,-0.079 -0.022,-0.106c-0.015,-0.027 -0.037,-0.04 -0.065,-0.04c-0.016,0 -0.031,0.005 -0.046,0.015c-0.015,0.01 -0.027,0.027 -0.036,0.051c-0.009,0.023 -0.014,0.056 -0.014,0.098c0,0.033 0.004,0.065 0.013,0.096c0.009,0.03 0.023,0.054 0.044,0.074c0.021,0.019 0.05,0.028 0.088,0.028c0.022,0 0.044,-0.005 0.066,-0.014c0.021,-0.009 0.04,-0.023 0.057,-0.04c0.005,0.003 0.011,0.008 0.016,0.015c0.005,0.007 0.007,0.014 0.008,0.021c-0.023,0.029 -0.05,0.049 -0.08,0.062c-0.031,0.012 -0.065,0.018 -0.103,0.018Z" style="fill-rule:nonzero;"/></g><g transform="matrix(59.7431,0,0,59.7431,369.631,235.878)"><path d="M0.365,-0.433c-0.001,0.017 -0.001,0.034 -0.001,0.052c0,0.018 0.001,0.036 0.004,0.053c-0.007,0.004 -0.016,0.007 -0.026,0.01c-0.011,0.002 -0.021,0.003 -0.032,0.003c-0.001,-0.018 -0.006,-0.035 -0.015,-0.051c-0.009,-0.016 -0.022,-0.029 -0.037,-0.039c-0.015,-0.01 -0.034,-0.015 -0.055,-0.015c-0.019,0 -0.035,0.005 -0.046,0.014c-0.011,0.009 -0.017,0.022 -0.017,0.037c0,0.011 0.002,0.02 0.007,0.028c0.005,0.009 0.015,0.018 0.032,0.027c0.017,0.01 0.042,0.022 0.077,0.036c0.037,0.013 0.065,0.027 0.086,0.04c0.021,0.014 0.036,0.029 0.045,0.045c0.009,0.017 0.013,0.037 0.013,0.061c0,0.028 -0.008,0.053 -0.024,0.074c-0.017,0.021 -0.039,0.038 -0.068,0.049c-0.029,0.012 -0.062,0.018 -0.099,0.018c-0.041,-0 -0.073,-0.003 -0.097,-0.01c-0.025,-0.006 -0.049,-0.015 -0.073,-0.026c0.002,-0.011 0.003,-0.025 0.004,-0.04c-0,-0.015 0,-0.031 0,-0.046c0,-0.015 -0.001,-0.027 -0.002,-0.038c0.006,-0.005 0.015,-0.008 0.026,-0.01c0.011,-0.002 0.022,-0.003 0.033,-0.003c0.005,0.041 0.018,0.071 0.038,0.091c0.019,0.02 0.045,0.03 0.078,0.03c0.025,-0 0.044,-0.006 0.059,-0.017c0.014,-0.011 0.021,-0.025 0.021,-0.043c0,-0.011 -0.003,-0.021 -0.009,-0.03c-0.005,-0.009 -0.015,-0.017 -0.03,-0.026c-0.015,-0.008 -0.037,-0.018 -0.066,-0.029c-0.035,-0.014 -0.063,-0.027 -0.085,-0.04c-0.021,-0.013 -0.037,-0.028 -0.047,-0.046c-0.01,-0.017 -0.015,-0.04 -0.015,-0.067c0,-0.021 0.005,-0.04 0.016,-0.056c0.011,-0.016 0.025,-0.029 0.042,-0.04c0.016,-0.01 0.035,-0.018 0.055,-0.023c0.021,-0.005 0.04,-0.007 0.059,-0.007c0.032,-0 0.06,0.003 0.083,0.008c0.023,0.006 0.045,0.015 0.066,0.026Z" style="fill-rule:nonzero;"/></g><g transform="matrix(59.7431,0,0,59.7431,395.799,235.878)"><path d="M0.365,-0.433c-0.001,0.017 -0.001,0.034 -0.001,0.052c0,0.018 0.001,0.036 0.004,0.053c-0.007,0.004 -0.016,0.007 -0.026,0.01c-0.011,0.002 -0.021,0.003 -0.032,0.003c-0.001,-0.018 -0.006,-0.035 -0.015,-0.051c-0.009,-0.016 -0.022,-0.029 -0.037,-0.039c-0.015,-0.01 -0.034,-0.015 -0.055,-0.015c-0.019,0 -0.035,0.005 -0.046,0.014c-0.011,0.009 -0.017,0.022 -0.017,0.037c0,0.011 0.002,0.02 0.007,0.028c0.005,0.009 0.015,0.018 0.032,0.027c0.017,0.01 0.042,0.022 0.077,0.036c0.037,0.013 0.065,0.027 0.086,0.04c0.021,0.014 0.036,0.029 0.045,0.045c0.009,0.017 0.013,0.037 0.013,0.061c0,0.028 -0.008,0.053 -0.024,0.074c-0.017,0.021 -0.039,0.038 -0.068,0.049c-0.029,0.012 -0.062,0.018 -0.099,0.018c-0.041,-0 -0.073,-0.003 -0.097,-0.01c-0.025,-0.006 -0.049,-0.015 -0.073,-0.026c0.002,-0.011 0.003,-0.025 0.004,-0.04c-0,-0.015 0,-0.031 0,-0.046c0,-0.015 -0.001,-0.027 -0.002,-0.038c0.006,-0.005 0.015,-0.008 0.026,-0.01c0.011,-0.002 0.022,-0.003 0.033,-0.003c0.005,0.041 0.018,0.071 0.038,0.091c0.019,0.02 0.045,0.03 0.078,0.03c0.025,-0 0.044,-0.006 0.059,-0.017c0.014,-0.011 0.021,-0.025 0.021,-0.043c0,-0.011 -0.003,-0.021 -0.009,-0.03c-0.005,-0.009 -0.015,-0.017 -0.03,-0.026c-0.015,-0.008 -0.037,-0.018 -0.066,-0.029c-0.035,-0.014 -0.063,-0.027 -0.085,-0.04c-0.021,-0.013 -0.037,-0.028 -0.047,-0.046c-0.01,-0.017 -0.015,-0.04 -0.015,-0.067c0,-0.021 0.005,-0.04 0.016,-0.056c0.011,-0.016 0.025,-0.029 0.042,-0.04c0.016,-0.01 0.035,-0.018 0.055,-0.023c0.021,-0.005 0.04,-0.007 0.059,-0.007c0.032,-0 0.06,0.003 0.083,0.008c0.023,0.006 0.045,0.015 0.066,0.026Z" style="fill-rule:nonzero;"/></g><g transform="matrix(59.7431,0,0,59.7431,433.915,235.878)"><path d="M0.036,0.245c-0,-0.011 0,-0.02 0.001,-0.028c0.001,-0.008 0.002,-0.015 0.005,-0.02c0.018,-0.001 0.032,-0.005 0.042,-0.01c0.009,-0.005 0.016,-0.014 0.02,-0.027c0.004,-0.013 0.006,-0.031 0.006,-0.054l-0,-0.422c-0,-0.017 -0.002,-0.031 -0.005,-0.042c-0.003,-0.01 -0.009,-0.018 -0.02,-0.023c-0.011,-0.005 -0.027,-0.008 -0.049,-0.009c-0,-0.008 0.001,-0.016 0.002,-0.023c0.001,-0.007 0.004,-0.014 0.007,-0.02c0.025,-0.001 0.052,-0.005 0.081,-0.012c0.029,-0.007 0.051,-0.014 0.066,-0.022c0.007,0.003 0.012,0.007 0.017,0.014c0.005,0.007 0.007,0.018 0.007,0.033c-0,0.013 -0.002,0.027 -0.007,0.04c-0.004,0.013 -0.009,0.03 -0.016,0.051l0.023,0.02l0,0.396c0,0.029 0.003,0.051 0.009,0.066c0.006,0.015 0.016,0.026 0.029,0.032c0.014,0.006 0.032,0.01 0.054,0.012c0.002,0.006 0.004,0.013 0.005,0.021c0.001,0.008 0.001,0.017 0.001,0.027c-0.011,-0.001 -0.023,-0.001 -0.038,-0.002c-0.015,0 -0.03,-0 -0.047,-0.001c-0.017,0 -0.033,-0 -0.05,0c-0.025,-0 -0.052,0 -0.079,0c-0.027,0.001 -0.049,0.002 -0.064,0.003Zm0.26,-0.236c-0.018,-0 -0.034,-0.002 -0.048,-0.005c-0.013,-0.003 -0.028,-0.007 -0.045,-0.012l-0,-0.081c0.013,0.014 0.026,0.026 0.041,0.035c0.015,0.009 0.034,0.013 0.056,0.013c0.013,0 0.028,-0.003 0.043,-0.008c0.016,-0.005 0.031,-0.015 0.046,-0.028c0.015,-0.014 0.027,-0.033 0.036,-0.058c0.009,-0.025 0.014,-0.058 0.014,-0.098c-0,-0.033 -0.005,-0.061 -0.014,-0.086c-0.009,-0.025 -0.021,-0.045 -0.037,-0.059c-0.016,-0.014 -0.035,-0.021 -0.056,-0.021c-0.019,0 -0.037,0.006 -0.055,0.018c-0.018,0.012 -0.033,0.032 -0.044,0.059c-0.011,0.027 -0.017,0.063 -0.017,0.108l-0.032,-0.105c0.009,-0.023 0.017,-0.04 0.024,-0.052c0.007,-0.013 0.014,-0.022 0.019,-0.027c0.006,-0.01 0.015,-0.02 0.028,-0.031c0.013,-0.011 0.029,-0.02 0.047,-0.027c0.019,-0.007 0.039,-0.011 0.06,-0.011c0.039,0 0.073,0.008 0.101,0.023c0.028,0.015 0.05,0.038 0.065,0.069c0.016,0.031 0.024,0.071 0.024,0.119c0,0.051 -0.011,0.096 -0.032,0.136c-0.021,0.04 -0.051,0.072 -0.09,0.095c-0.038,0.023 -0.083,0.034 -0.134,0.034Z" style="fill-rule:nonzero;"/></g><g transform="matrix(59.7431,0,0,59.7431,469.163,235.878)"><path d="M0.227,0.004c-0.046,-0 -0.082,-0.013 -0.108,-0.039c-0.025,-0.026 -0.038,-0.073 -0.038,-0.14l-0,-0.141c-0,-0.025 -0.003,-0.044 -0.01,-0.055c-0.007,-0.012 -0.025,-0.018 -0.055,-0.019c-0,-0.008 0,-0.015 0.001,-0.022c0.001,-0.007 0.004,-0.014 0.007,-0.021c0.025,-0.001 0.05,-0.005 0.076,-0.012c0.027,-0.007 0.048,-0.014 0.063,-0.022c0.007,0.003 0.012,0.007 0.017,0.014c0.005,0.007 0.007,0.018 0.007,0.033l-0,0.222c-0,0.045 0.006,0.078 0.017,0.101c0.011,0.023 0.031,0.034 0.06,0.034c0.031,0 0.058,-0.014 0.079,-0.041c0.021,-0.027 0.032,-0.07 0.032,-0.127l-0,-0.09c-0,-0.025 -0.004,-0.044 -0.013,-0.055c-0.008,-0.012 -0.028,-0.018 -0.061,-0.019c-0,-0.008 0,-0.015 0.001,-0.022c0.001,-0.007 0.003,-0.014 0.007,-0.021c0.029,-0.001 0.057,-0.005 0.084,-0.01c0.027,-0.006 0.049,-0.012 0.064,-0.019c0.007,0.003 0.012,0.007 0.017,0.014c0.005,0.007 0.007,0.018 0.007,0.033l-0,0.287l-0.092,0.037c-0.003,0.009 -0.008,0.018 -0.014,0.027c-0.006,0.009 -0.013,0.017 -0.021,0.024c-0.017,0.016 -0.035,0.028 -0.055,0.037c-0.02,0.008 -0.044,0.012 -0.072,0.012Zm0.184,0.005c-0.008,-0.003 -0.015,-0.009 -0.02,-0.015c-0.005,-0.007 -0.007,-0.022 -0.007,-0.043c-0,-0.008 0.001,-0.019 0.002,-0.032c0.001,-0.014 0.004,-0.032 0.008,-0.053l0.087,-0.011c-0,0.017 0.001,0.03 0.004,0.041c0.003,0.011 0.008,0.018 0.017,0.023c0.009,0.005 0.022,0.007 0.04,0.007c-0,0.008 -0,0.017 -0.001,0.026c-0.001,0.009 -0.003,0.018 -0.006,0.026c-0.019,0.001 -0.04,0.004 -0.063,0.009c-0.023,0.005 -0.044,0.013 -0.061,0.022Z" style="fill-rule:nonzero;"/></g><g transform="matrix(59.7431,0,0,59.7431,503.695,235.878)"><path d="M0.216,-0.155c0,0.029 0.003,0.051 0.009,0.066c0.006,0.015 0.016,0.026 0.029,0.032c0.014,0.006 0.032,0.01 0.054,0.012c0.002,0.006 0.004,0.013 0.005,0.021c0.001,0.008 0.001,0.017 0.001,0.027c-0.011,-0.001 -0.023,-0.001 -0.038,-0.002c-0.015,0 -0.03,-0 -0.047,-0.001c-0.017,0 -0.033,-0 -0.05,-0c-0.025,-0 -0.052,0 -0.079,0c-0.027,0.001 -0.049,0.002 -0.064,0.003c-0,-0.011 0,-0.02 0.001,-0.028c0.001,-0.008 0.002,-0.015 0.005,-0.02c0.018,-0.001 0.032,-0.005 0.041,-0.01c0.01,-0.005 0.017,-0.014 0.021,-0.027c0.004,-0.013 0.006,-0.031 0.006,-0.054l-0,-0.091l0.106,0l-0,0.072Zm-0,-0.138l-0,0.081l-0.106,0l-0,-0.111l0.106,-0.097c-0,0.021 -0.002,0.04 -0.006,0.058c-0.004,0.018 -0.008,0.037 -0.012,0.056l0.018,0.013Zm-0.022,-0.007c0.007,-0.018 0.012,-0.033 0.016,-0.046c0.005,-0.013 0.009,-0.024 0.014,-0.032c0.015,-0.023 0.032,-0.043 0.052,-0.058c0.021,-0.015 0.044,-0.023 0.071,-0.023c0.025,0 0.048,0.008 0.069,0.024c-0.001,0.011 -0.003,0.025 -0.004,0.039c-0.001,0.016 -0.002,0.031 -0.003,0.046c0,0.015 -0,0.028 -0,0.041c-0.007,0.003 -0.017,0.005 -0.029,0.007c-0.012,0.002 -0.024,0.003 -0.036,0.003c-0.001,-0.03 -0.006,-0.05 -0.014,-0.06c-0.009,-0.011 -0.02,-0.016 -0.033,-0.016c-0.011,0 -0.022,0.006 -0.035,0.019c-0.013,0.013 -0.024,0.029 -0.033,0.05c-0.009,0.021 -0.013,0.043 -0.013,0.068l-0.022,-0.062Zm-0.084,0.088l0,-0.104c0,-0.017 -0.001,-0.031 -0.004,-0.041c-0.003,-0.011 -0.01,-0.019 -0.021,-0.024c-0.011,-0.005 -0.027,-0.008 -0.049,-0.009c0,-0.008 0.001,-0.016 0.002,-0.023c0.001,-0.007 0.004,-0.014 0.007,-0.02c0.025,-0.001 0.052,-0.005 0.081,-0.012c0.029,-0.007 0.051,-0.014 0.066,-0.022c0.007,0.003 0.012,0.007 0.017,0.014c0.005,0.007 0.007,0.018 0.007,0.033l-0.106,0.208Z" style="fill-rule:nonzero;"/></g><g transform="matrix(59.7431,0,0,59.7431,529.743,235.878)"><path d="M0.365,-0.433c-0.001,0.017 -0.001,0.034 -0.001,0.052c0,0.018 0.001,0.036 0.004,0.053c-0.007,0.004 -0.016,0.007 -0.026,0.01c-0.011,0.002 -0.021,0.003 -0.032,0.003c-0.001,-0.018 -0.006,-0.035 -0.015,-0.051c-0.009,-0.016 -0.022,-0.029 -0.037,-0.039c-0.015,-0.01 -0.034,-0.015 -0.055,-0.015c-0.019,0 -0.035,0.005 -0.046,0.014c-0.011,0.009 -0.017,0.022 -0.017,0.037c0,0.011 0.002,0.02 0.007,0.028c0.005,0.009 0.015,0.018 0.032,0.027c0.017,0.01 0.042,0.022 0.077,0.036c0.037,0.013 0.065,0.027 0.086,0.04c0.021,0.014 0.036,0.029 0.045,0.045c0.009,0.017 0.013,0.037 0.013,0.061c0,0.028 -0.008,0.053 -0.024,0.074c-0.017,0.021 -0.039,0.038 -0.068,0.049c-0.029,0.012 -0.062,0.018 -0.099,0.018c-0.041,-0 -0.073,-0.003 -0.097,-0.01c-0.025,-0.006 -0.049,-0.015 -0.073,-0.026c0.002,-0.011 0.003,-0.025 0.004,-0.04c-0,-0.015 0,-0.031 0,-0.046c0,-0.015 -0.001,-0.027 -0.002,-0.038c0.006,-0.005 0.015,-0.008 0.026,-0.01c0.011,-0.002 0.022,-0.003 0.033,-0.003c0.005,0.041 0.018,0.071 0.038,0.091c0.019,0.02 0.045,0.03 0.078,0.03c0.025,-0 0.044,-0.006 0.059,-0.017c0.014,-0.011 0.021,-0.025 0.021,-0.043c0,-0.011 -0.003,-0.021 -0.009,-0.03c-0.005,-0.009 -0.015,-0.017 -0.03,-0.026c-0.015,-0.008 -0.037,-0.018 -0.066,-0.029c-0.035,-0.014 -0.063,-0.027 -0.085,-0.04c-0.021,-0.013 -0.037,-0.028 -0.047,-0.046c-0.01,-0.017 -0.015,-0.04 -0.015,-0.067c0,-0.021 0.005,-0.04 0.016,-0.056c0.011,-0.016 0.025,-0.029 0.042,-0.04c0.016,-0.01 0.035,-0.018 0.055,-0.023c0.021,-0.005 0.04,-0.007 0.059,-0.007c0.032,-0 0.06,0.003 0.083,0.008c0.023,0.006 0.045,0.015 0.066,0.026Z" style="fill-rule:nonzero;"/></g><g transform="matrix(59.7431,0,0,59.7431,555.911,235.878)"><path d="M0.227,0.004c-0.046,-0 -0.082,-0.013 -0.108,-0.039c-0.025,-0.026 -0.038,-0.073 -0.038,-0.14l-0,-0.141c-0,-0.025 -0.003,-0.044 -0.01,-0.055c-0.007,-0.012 -0.025,-0.018 -0.055,-0.019c-0,-0.008 0,-0.015 0.001,-0.022c0.001,-0.007 0.004,-0.014 0.007,-0.021c0.025,-0.001 0.05,-0.005 0.076,-0.012c0.027,-0.007 0.048,-0.014 0.063,-0.022c0.007,0.003 0.012,0.007 0.017,0.014c0.005,0.007 0.007,0.018 0.007,0.033l-0,0.222c-0,0.045 0.006,0.078 0.017,0.101c0.011,0.023 0.031,0.034 0.06,0.034c0.031,0 0.058,-0.014 0.079,-0.041c0.021,-0.027 0.032,-0.07 0.032,-0.127l-0,-0.09c-0,-0.025 -0.004,-0.044 -0.013,-0.055c-0.008,-0.012 -0.028,-0.018 -0.061,-0.019c-0,-0.008 0,-0.015 0.001,-0.022c0.001,-0.007 0.003,-0.014 0.007,-0.021c0.029,-0.001 0.057,-0.005 0.084,-0.01c0.027,-0.006 0.049,-0.012 0.064,-0.019c0.007,0.003 0.012,0.007 0.017,0.014c0.005,0.007 0.007,0.018 0.007,0.033l-0,0.287l-0.092,0.037c-0.003,0.009 -0.008,0.018 -0.014,0.027c-0.006,0.009 -0.013,0.017 -0.021,0.024c-0.017,0.016 -0.035,0.028 -0.055,0.037c-0.02,0.008 -0.044,0.012 -0.072,0.012Zm0.184,0.005c-0.008,-0.003 -0.015,-0.009 -0.02,-0.015c-0.005,-0.007 -0.007,-0.022 -0.007,-0.043c-0,-0.008 0.001,-0.019 0.002,-0.032c0.001,-0.014 0.004,-0.032 0.008,-0.053l0.087,-0.011c-0,0.017 0.001,0.03 0.004,0.041c0.003,0.011 0.008,0.018 0.017,0.023c0.009,0.005 0.022,0.007 0.04,0.007c-0,0.008 -0,0.017 -0.001,0.026c-0.001,0.009 -0.003,0.018 -0.006,0.026c-0.019,0.001 -0.04,0.004 -0.063,0.009c-0.023,0.005 -0.044,0.013 -0.061,0.022Z" style="fill-rule:nonzero;"/></g><g transform="matrix(59.7431,0,0,59.7431,590.442,235.878)"><path d="M0.036,0.003c-0,-0.008 0,-0.016 0.001,-0.025c0.001,-0.009 0.003,-0.016 0.005,-0.023c0.027,-0.001 0.045,-0.007 0.054,-0.019c0.009,-0.012 0.014,-0.035 0.014,-0.068l0,-0.187c0,-0.016 -0.002,-0.029 -0.005,-0.039c-0.003,-0.011 -0.009,-0.019 -0.02,-0.024c-0.011,-0.005 -0.027,-0.008 -0.05,-0.008c0,-0.008 0.001,-0.016 0.003,-0.023c0.001,-0.007 0.004,-0.014 0.007,-0.02c0.013,0 0.03,-0.002 0.05,-0.005c0.02,-0.003 0.039,-0.008 0.057,-0.013c0.018,-0.005 0.031,-0.011 0.04,-0.016c0.007,0.003 0.012,0.007 0.017,0.014c0.005,0.007 0.007,0.017 0.007,0.03l-0,0.291c-0,0.033 0.004,0.056 0.013,0.068c0.009,0.012 0.025,0.018 0.047,0.019c0.002,0.007 0.003,0.015 0.004,0.024c0.001,0.009 0.001,0.017 0.001,0.024c-0.011,-0.001 -0.023,-0.001 -0.036,-0.002c-0.013,0 -0.027,-0 -0.042,-0.001c-0.015,0 -0.029,0 -0.043,0c-0.015,0 -0.029,0 -0.045,0c-0.014,0.001 -0.029,0.001 -0.043,0.001c-0.013,0.001 -0.025,0.001 -0.036,0.002Zm0.118,-0.573c-0.019,0 -0.035,-0.006 -0.048,-0.017c-0.012,-0.012 -0.018,-0.027 -0.018,-0.044c-0,-0.02 0.007,-0.036 0.02,-0.048c0.013,-0.012 0.029,-0.018 0.047,-0.018c0.021,0 0.037,0.006 0.049,0.018c0.012,0.012 0.018,0.028 0.018,0.047c-0,0.017 -0.007,0.031 -0.02,0.044c-0.013,0.012 -0.029,0.018 -0.048,0.018Z" style="fill-rule:nonzero;"/></g><g transform="matrix(59.7431,0,0,59.7431,609.321,235.878)"><path d="M0.213,0.009c-0.041,-0 -0.072,-0.011 -0.093,-0.032c-0.02,-0.021 -0.03,-0.056 -0.03,-0.105l0,-0.258c-0.01,-0.003 -0.02,-0.006 -0.031,-0.009c-0.011,-0.002 -0.025,-0.003 -0.041,-0.004c0,-0.009 0.001,-0.018 0.002,-0.025c0.001,-0.007 0.004,-0.015 0.007,-0.024l0.063,0l0,-0.129c0.016,-0.003 0.032,-0.009 0.048,-0.017c0.015,-0.008 0.028,-0.017 0.039,-0.026c0.007,0.003 0.012,0.007 0.015,0.013c0.003,0.006 0.004,0.02 0.004,0.042l0,0.117l0.128,0c0,0.008 -0.001,0.016 -0.002,0.025c-0.001,0.009 -0.004,0.017 -0.007,0.025c-0.024,0 -0.046,0.001 -0.066,0.004c-0.019,0.003 -0.037,0.006 -0.053,0.009l0,0.237c0,0.023 0.002,0.042 0.007,0.056c0.004,0.015 0.01,0.025 0.018,0.032c0.009,0.007 0.019,0.01 0.031,0.01c0.013,-0 0.025,-0.002 0.035,-0.006c0.011,-0.003 0.021,-0.009 0.03,-0.016c0.009,0.011 0.014,0.023 0.015,0.038c-0.011,0.012 -0.028,0.022 -0.051,0.03c-0.023,0.009 -0.045,0.013 -0.068,0.013Z" style="fill-rule:nonzero;"/></g><g transform="matrix(59.7431,0,0,59.7431,630.709,235.878)"><path d="M0.129,0.01c-0.024,-0 -0.043,-0.007 -0.057,-0.021c-0.013,-0.013 -0.02,-0.031 -0.02,-0.051c-0,-0.022 0.008,-0.04 0.023,-0.055c0.016,-0.015 0.035,-0.022 0.059,-0.022c0.023,-0 0.041,0.008 0.054,0.023c0.013,0.016 0.02,0.032 0.02,0.048c0,0.025 -0.008,0.045 -0.023,0.058c-0.016,0.013 -0.035,0.02 -0.056,0.02Z" style="fill-rule:nonzero;"/></g></g><path d="M4.167,227.884l1595.4,-0l-0,-8.334l-1595.4,0l-0,8.334Z"/><g><path d="M703.547,409.743l-47.8,-105l2.4,-0l-6.6,65.8c-0.667,7.467 -0.734,13.167 -0.2,17.1c0.533,3.933 1.866,6.7 4,8.3c2.133,1.6 5.133,2.6 9,3c0.4,1.467 0.7,3.133 0.9,5c0.2,1.867 0.3,3.4 0.3,4.6c-3.067,-0.267 -6.634,-0.433 -10.7,-0.5c-4.067,-0.067 -7.7,-0.1 -10.9,-0.1c-2,-0 -4.3,0.033 -6.9,0.1c-2.6,0.067 -5.134,0.133 -7.6,0.2c-2.467,0.067 -4.567,0.167 -6.3,0.3c-0,-1.2 0.066,-2.733 0.2,-4.6c0.133,-1.867 0.466,-3.533 1,-5c3.466,-0.4 6.266,-1.367 8.4,-2.9c2.133,-1.533 3.8,-4.333 5,-8.4c1.2,-4.067 2.133,-10.233 2.8,-18.5l6.2,-67.6c0.4,-5.067 0.266,-9.033 -0.4,-11.9c-0.667,-2.867 -2.034,-4.9 -4.1,-6.1c-2.067,-1.2 -4.967,-1.8 -8.7,-1.8c-0.534,-1.467 -0.867,-3.067 -1,-4.8c-0.134,-1.733 -0.2,-3.333 -0.2,-4.8c1.466,0.133 3.2,0.233 5.2,0.3c2,0.067 4.066,0.133 6.2,0.2c2.133,0.067 4.066,0.1 5.8,0.1c1.866,-0 3.8,-0.033 5.8,-0.1c2,-0.067 3.966,-0.133 5.9,-0.2c1.933,-0.067 3.7,-0.167 5.3,-0.3l50.6,112.6l-4.8,-0l43.8,-112.6c1.733,0.133 3.633,0.233 5.7,0.3c2.066,0.067 4.133,0.133 6.2,0.2c2.066,0.067 3.966,0.1 5.7,0.1c1.866,-0 3.766,-0.033 5.7,-0.1c1.933,-0.067 3.866,-0.133 5.8,-0.2c1.933,-0.067 3.766,-0.167 5.5,-0.3c-0,1.6 -0.067,3.233 -0.2,4.9c-0.134,1.667 -0.4,3.233 -0.8,4.7c-4.934,-0 -8.634,1.433 -11.1,4.3c-2.467,2.867 -3.234,8.367 -2.3,16.5l6.8,70.4c0.8,6.8 1.7,12 2.7,15.6c1,3.6 2.466,6.1 4.4,7.5c1.933,1.4 4.5,2.3 7.7,2.7c0.4,1.467 0.666,3.067 0.8,4.8c0.133,1.733 0.2,3.4 0.2,5c-1.467,-0.133 -3.3,-0.233 -5.5,-0.3c-2.2,-0.067 -4.567,-0.133 -7.1,-0.2c-2.534,-0.067 -4.967,-0.1 -7.3,-0.1l-6.3,-0c-2.534,-0 -5.367,0.033 -8.5,0.1c-3.134,0.067 -6.2,0.133 -9.2,0.2c-3,0.067 -5.567,0.167 -7.7,0.3c-0,-1.467 0.1,-3.067 0.3,-4.8c0.2,-1.733 0.5,-3.333 0.9,-4.8c4.266,-0.533 7.366,-1.433 9.3,-2.7c1.933,-1.267 3.066,-3.533 3.4,-6.8c0.333,-3.267 0.166,-7.9 -0.5,-13.9l-7.6,-71.4l2.6,-0l-42.8,104.2c-1.334,0.533 -2.8,0.9 -4.4,1.1c-1.6,0.2 -3.267,0.3 -5,0.3Z" style="fill-rule:nonzero;"/><path d="M828.413,368.943c-6.666,-0 -12.155,-1.422 -16.466,-4.267c-4.311,-2.844 -7.556,-6.666 -9.734,-11.466c-2.177,-4.8 -3.266,-10.089 -3.266,-15.867c-0,-5.867 1.155,-11.2 3.466,-16c2.311,-4.8 5.623,-8.645 9.934,-11.533c4.311,-2.889 9.4,-4.334 15.266,-4.334c5.956,0 10.756,1.245 14.4,3.734c3.645,2.488 6.378,5.822 8.2,10c1.823,4.177 2.867,8.888 3.134,14.133c-0.356,2.044 -1.111,3.733 -2.267,5.067l-7.267,-0c-3.066,-0 -6.489,0.022 -10.266,0.066c-3.778,0.045 -7.645,0.134 -11.6,0.267c-3.956,0.133 -7.667,0.289 -11.134,0.467l0,-7.334l27.467,0c-0,-5.866 -1,-10.578 -3,-14.133c-2,-3.556 -4.867,-5.333 -8.6,-5.333c-2.133,-0 -4.178,0.666 -6.133,2c-1.956,1.333 -3.556,3.577 -4.8,6.733c-1.245,3.155 -1.867,7.533 -1.867,13.133c-0,4.445 0.578,8.689 1.733,12.734c1.156,4.044 3.111,7.333 5.867,9.866c2.756,2.534 6.667,3.8 11.733,3.8c2.934,0 5.845,-0.622 8.734,-1.866c2.889,-1.245 5.444,-3.023 7.666,-5.334c0.711,0.356 1.4,1.022 2.067,2c0.667,0.978 1.044,1.911 1.133,2.8c-3.111,3.822 -6.689,6.556 -10.733,8.2c-4.044,1.645 -8.6,2.467 -13.667,2.467Z" style="fill-rule:nonzero;"/><path d="M897.88,305.476c2.4,0 4.533,0.2 6.4,0.6c1.867,0.4 3.867,0.956 6,1.667l-0,10.8c-1.778,-1.867 -3.644,-3.4 -5.6,-4.6c-1.956,-1.2 -4.4,-1.8 -7.333,-1.8c-1.867,-0 -3.845,0.355 -5.934,1.067c-2.089,0.711 -4.111,1.977 -6.066,3.8c-1.956,1.822 -3.534,4.4 -4.734,7.733c-1.2,3.333 -1.8,7.667 -1.8,13c0,5.244 0.756,9.467 2.267,12.667c1.511,3.2 3.356,5.577 5.533,7.133c2.178,1.555 4.289,2.333 6.334,2.333c2.577,0 5.044,-0.8 7.4,-2.4c2.355,-1.6 4.311,-4.2 5.866,-7.8c1.556,-3.6 2.334,-8.422 2.334,-14.466l4.266,14c-1.244,3.022 -2.355,5.355 -3.333,7c-0.978,1.644 -1.778,2.822 -2.4,3.533c-0.889,1.333 -2.2,2.689 -3.933,4.067c-1.734,1.377 -3.8,2.577 -6.2,3.6c-2.4,1.022 -5.067,1.533 -8,1.533c-5.156,-0 -9.623,-1.022 -13.4,-3.067c-3.778,-2.044 -6.711,-5.222 -8.8,-9.533c-2.089,-4.311 -3.134,-9.845 -3.134,-16.6c0,-6.4 1.423,-12.178 4.267,-17.333c2.844,-5.156 6.844,-9.267 12,-12.334c5.156,-3.066 11.156,-4.6 18,-4.6Zm24.667,42.934c-0,2.222 0.177,4.044 0.533,5.466c0.356,1.422 1.133,2.445 2.333,3.067c1.2,0.622 2.956,0.933 5.267,0.933c0.089,1.067 0.067,2.222 -0.067,3.467c-0.133,1.244 -0.422,2.4 -0.866,3.467c-2.489,0.088 -5.289,0.488 -8.4,1.2c-3.111,0.711 -5.823,1.688 -8.134,2.933c-1.066,-0.445 -1.933,-1.133 -2.6,-2.067c-0.666,-0.933 -1,-2.822 -1,-5.666c0,-1.778 0.178,-3.4 0.534,-4.867c0.355,-1.467 0.844,-3.711 1.466,-6.733l10.934,-1.2Zm-0,-57.2l-0,59.466l-14,0l-0,-59.466l14,-0Zm-3.2,-19.067c0.889,0.355 1.644,0.978 2.266,1.867c0.623,0.888 0.934,2.222 0.934,4l-0,18l-14,-0l-0,-4.134c-0,-2.133 -0.223,-3.889 -0.667,-5.266c-0.444,-1.378 -1.378,-2.423 -2.8,-3.134c-1.422,-0.711 -3.6,-1.066 -6.533,-1.066c-0,-1.067 0.089,-2.089 0.266,-3.067c0.178,-0.978 0.489,-1.867 0.934,-2.667c1.866,0 4.111,-0.222 6.733,-0.666c2.622,-0.445 5.156,-1.023 7.6,-1.734c2.444,-0.711 4.2,-1.422 5.267,-2.133Z" style="fill-rule:nonzero;"/><path d="M940.28,368.143c-0,-1.067 0.067,-2.178 0.2,-3.333c0.133,-1.156 0.333,-2.178 0.6,-3.067c3.556,-0.089 5.956,-0.933 7.2,-2.533c1.244,-1.6 1.867,-4.623 1.867,-9.067l-0,-24.933c-0,-2.134 -0.2,-3.889 -0.6,-5.267c-0.4,-1.378 -1.311,-2.422 -2.734,-3.133c-1.422,-0.712 -3.644,-1.067 -6.666,-1.067c-0,-1.067 0.111,-2.089 0.333,-3.067c0.222,-0.978 0.556,-1.866 1,-2.666c1.778,-0 4,-0.223 6.667,-0.667c2.666,-0.445 5.2,-1.022 7.6,-1.733c2.4,-0.712 4.177,-1.423 5.333,-2.134c0.889,0.356 1.644,0.978 2.267,1.867c0.622,0.889 0.933,2.222 0.933,4l-0,38.8c-0,4.444 0.6,7.467 1.8,9.067c1.2,1.6 3.267,2.444 6.2,2.533c0.267,0.889 0.444,1.955 0.533,3.2c0.089,1.244 0.134,2.311 0.134,3.2c-1.423,-0.089 -3.023,-0.156 -4.8,-0.2c-1.778,-0.045 -3.645,-0.089 -5.6,-0.133c-1.956,-0.045 -3.867,-0.067 -5.734,-0.067c-1.955,-0 -3.933,0.022 -5.933,0.067c-2,0.044 -3.911,0.088 -5.733,0.133c-1.823,0.044 -3.445,0.111 -4.867,0.2Zm15.733,-76.4c-2.577,-0 -4.689,-0.778 -6.333,-2.333c-1.644,-1.556 -2.467,-3.489 -2.467,-5.8c0,-2.667 0.889,-4.8 2.667,-6.4c1.778,-1.6 3.867,-2.4 6.267,-2.4c2.755,-0 4.933,0.8 6.533,2.4c1.6,1.6 2.4,3.688 2.4,6.266c-0,2.222 -0.867,4.156 -2.6,5.8c-1.733,1.645 -3.889,2.467 -6.467,2.467Z" style="fill-rule:nonzero;"/><path d="M1024.15,368.943c-1.067,-0.445 -1.911,-1.267 -2.534,-2.467c-0.622,-1.2 -0.933,-3 -0.933,-5.4c-0,-0.889 0.067,-1.933 0.2,-3.133c0.133,-1.2 0.333,-2.333 0.6,-3.4l0.4,-0c-0.356,1.689 -1.044,3.378 -2.067,5.067c-1.022,1.688 -2.289,3.2 -3.8,4.533c-1.6,1.333 -3.6,2.422 -6,3.267c-2.4,0.844 -5.244,1.266 -8.533,1.266c-5.689,0 -10.067,-1.266 -13.133,-3.8c-3.067,-2.533 -4.6,-6.066 -4.6,-10.6c-0,-3.466 0.822,-6.422 2.466,-8.866c1.645,-2.445 3.778,-4.489 6.4,-6.134c2.623,-1.644 5.489,-2.955 8.6,-3.933c3.111,-0.978 6.2,-1.756 9.267,-2.333c3.067,-0.578 5.844,-1.045 8.333,-1.4c0,-3.378 -0.066,-6.045 -0.2,-8c-0.133,-1.956 -0.4,-3.534 -0.8,-4.734c-0.4,-1.2 -1,-2.244 -1.8,-3.133c-1.066,-1.245 -2.266,-2.178 -3.6,-2.8c-1.333,-0.622 -2.8,-0.933 -4.4,-0.933c-2.844,-0 -5.066,0.866 -6.666,2.6c-1.6,1.733 -2.756,3.777 -3.467,6.133c-0.711,2.355 -1.156,4.555 -1.333,6.6c-1.245,-0 -2.667,-0.089 -4.267,-0.267c-1.6,-0.178 -2.889,-0.444 -3.867,-0.8c0.178,-2.311 0.245,-4.844 0.2,-7.6c-0.044,-2.755 -0.333,-5.2 -0.866,-7.333c3.733,-1.867 7.733,-3.311 12,-4.333c4.266,-1.023 8.222,-1.534 11.866,-1.534c3.823,0 7.023,0.489 9.6,1.467c2.578,0.978 4.578,2.267 6,3.867c2.223,2.133 3.734,4.955 4.534,8.466c0.8,3.511 1.2,8.289 1.2,14.334l-0,13.733c-0,2.578 0.2,4.622 0.6,6.133c0.4,1.511 1.177,2.6 2.333,3.267c1.156,0.667 2.889,1.044 5.2,1.133c0.089,1.067 0.067,2.222 -0.067,3.467c-0.133,1.244 -0.422,2.4 -0.866,3.467c-2.489,0.088 -5.2,0.488 -8.134,1.2c-2.933,0.711 -5.555,1.688 -7.866,2.933Zm-18.134,-8.667c1.956,0 3.911,-0.644 5.867,-1.933c1.956,-1.289 3.6,-3.245 4.933,-5.867c1.334,-2.622 2,-6.066 2,-10.333l0,-4.667c-2.311,0.356 -4.666,0.8 -7.066,1.334c-2.4,0.533 -4.6,1.288 -6.6,2.266c-2,0.978 -3.6,2.267 -4.8,3.867c-1.2,1.6 -1.8,3.733 -1.8,6.4c-0,3.111 0.755,5.378 2.266,6.8c1.511,1.422 3.245,2.133 5.2,2.133Z" style="fill-rule:nonzero;"/></g></svg>